<?xml version="1.0" encoding="UTF-8" standalone="no"?>
<svg
   width="56"
   height="56.007179"
   version="1"
   id="svg16"
   sodipodi:docname="tor-off.svg"
   inkscape:version="1.1.2 (0a00cf5339, 2022-02-04)"
   xmlns:inkscape="http://www.inkscape.org/namespaces/inkscape"
   xmlns:sodipodi="http://sodipodi.sourceforge.net/DTD/sodipodi-0.dtd"
   xmlns="http://www.w3.org/2000/svg"
   xmlns:svg="http://www.w3.org/2000/svg">
  <defs
     id="defs20" />
  <sodipodi:namedview
     id="namedview18"
     pagecolor="#ffffff"
     bordercolor="#666666"
     borderopacity="1.0"
     inkscape:pageshadow="2"
     inkscape:pageopacity="0.0"
     inkscape:pagecheckerboard="0"
     showgrid="false"
     inkscape:zoom="9.1176157"
     inkscape:cx="7.6226068"
     inkscape:cy="35.700123"
     inkscape:window-width="2560"
     inkscape:window-height="1335"
     inkscape:window-x="0"
     inkscape:window-y="0"
     inkscape:window-maximized="1"
     inkscape:current-layer="g34670"
     showguides="true"
     inkscape:guide-bbox="true"
     fit-margin-top="0"
     fit-margin-left="0"
     fit-margin-right="0"
     fit-margin-bottom="0">
    <sodipodi:guide
       position="-47.113152,51.478372"
       orientation="0.70710678,-0.70710678"
       id="guide34459" />
  </sodipodi:namedview>
  <g
     id="g34670"
     transform="translate(-2.2782477,-1.5195852)">
    <path
       style="fill:#989898;fill-opacity:1"
       d="m 58.278248,29.519585 a 28,28 0 0 0 -28,-27.9999998 A 28,28 0 0 0 2.2782482,29.519585 Z m -4.858984,15.758202 c -0.138178,0.202514 -0.296926,0.389238 -0.440235,0.587892 a 28,28 0 0 0 0.440235,-0.587892 z m -1.648828,2.179298 c -0.219478,0.262688 -0.460267,0.505768 -0.689063,0.760156 a 28,28 0 0 0 0.689063,-0.760156 z m -1.856641,2.009766 c -0.256606,0.252614 -0.532285,0.484704 -0.798438,0.727344 a 28,28 0 0 0 0.798438,-0.727344 z m -2.069922,1.842968 c -0.280066,0.226048 -0.577993,0.42999 -0.866797,0.645314 a 28,28 0 0 0 0.866797,-0.645314 z m -2.201172,1.60508 c -0.315657,0.207732 -0.646316,0.392758 -0.970703,0.587888 a 28,28 0 0 0 0.970703,-0.587888 z m -2.414453,1.416404 c -0.300752,0.1573 -0.611696,0.2964 -0.91875,0.442968 a 28,28 0 0 0 0.91875,-0.442968 z m -2.526564,1.16211 c -0.304364,0.12228 -0.617408,0.227284 -0.926952,0.339062 a 28,28 0 0 0 0.926952,-0.339062 z m -2.630468,0.905078 c -0.331718,0.09604 -0.669582,0.17578 -1.00625,0.259766 a 28,28 0 0 0 1.00625,-0.259766 z m -2.961328,0.697266 c -0.0447,0.0078 -0.0892,0.017 -0.13398,0.02462 a 28,28 0 0 0 0.13398,-0.02462 z m -2.717968,0.336328 c -0.09304,0.007 -0.18564,0.0158 -0.278906,0.02188 a 28,28 0 0 0 0.278906,-0.02188 z M 14.520046,52.660601 c -0.202514,-0.13818 -0.389238,-0.296926 -0.587892,-0.440234 a 28,28 0 0 0 0.587892,0.440234 z m -2.179298,-1.64883 C 12.07806,50.792295 11.83498,50.551507 11.580592,50.322709 a 28,28 0 0 0 0.760156,0.689062 z M 10.330982,49.155133 C 10.078368,48.898527 9.8462776,48.622847 9.6036376,48.356695 a 28,28 0 0 0 0.7273444,0.798438 z M 8.4880136,47.085209 c -0.226048,-0.280064 -0.42999,-0.577992 -0.645314,-0.866796 a 28,28 0 0 0 0.645314,0.866796 z m -1.60508,-2.201172 C 6.6752016,44.568381 6.4901756,44.237721 6.2950461,43.913335 a 28,28 0 0 0 0.5878875,0.970702 z M 5.4665302,42.469585 c -0.1573,-0.300752 -0.2964,-0.611696 -0.442968,-0.91875 a 28,28 0 0 0 0.442968,0.91875 z m -1.16211,-2.526564 c -0.12228,-0.304364 -0.227284,-0.617408 -0.339062,-0.926952 a 28,28 0 0 0 0.339062,0.926952 z m -0.905078,-2.630468 c -0.09604,-0.331718 -0.17578,-0.669582 -0.259766,-1.00625 a 28,28 0 0 0 0.259766,1.00625 z m -0.697266,-2.961328 c -0.0078,-0.0447 -0.017,-0.0892 -0.02462,-0.13398 a 28,28 0 0 0 0.02462,0.13398 z m -0.336328,-2.717968 c -0.007,-0.09302 -0.0158,-0.18564 -0.02188,-0.278906 a 28,28 0 0 0 0.02188,0.278906 z"
       id="path4" />
    <circle
       style="opacity:1;fill:#ffffff;fill-opacity:1"
       cx="29.519585"
       cy="-30.278248"
       r="22"
       id="circle6"
       transform="rotate(90)" />
    <circle
       style="opacity:1;fill:#989898;fill-opacity:1"
       cx="29.519585"
       cy="-30.278248"
       r="16"
       id="circle8"
       transform="rotate(90)" />
    <circle
       style="opacity:1;fill:#ffffff;fill-opacity:1"
       cx="29.519585"
       cy="-30.278248"
       r="10"
       id="circle10"
       transform="rotate(90)" />
    <path
       style="fill:#989898;stroke:none;fill-opacity:1"
       d="m 30.278248,57.519585 c -15.463972,0 -28.0000003,-12.536028 -28.0000003,-28 H 58.278248 c 0,15.463972 -12.536027,28 -28,28 z"
       id="path12" />
    <rect
       style="opacity:1;fill:#ffffff;fill-opacity:1;stroke:none;stroke-width:0.117141"
       id="rect34377"
       width="34.520412"
       height="7.3703346"
       x="-57.526764"
       y="26.593081"
       transform="rotate(-90)" />
    <circle
       style="opacity:1;fill:none;fill-opacity:1;stroke:#000000;stroke-width:1.17097;stroke-miterlimit:4;stroke-dasharray:none;stroke-opacity:1"
       id="path34993"
       cx="30.278248"
       cy="29.523174"
       r="27.469069" />
  </g>
</svg>
